<?xml version="1.0" standalone="no"?>
<!DOCTYPE svg PUBLIC "-//W3C//DTD SVG 20010904//EN"
 "http://www.w3.org/TR/2001/REC-SVG-20010904/DTD/svg10.dtd">
<svg version="1.0" xmlns="http://www.w3.org/2000/svg"
 width="50.000000pt" height="50.000000pt" viewBox="0 0 225.000000 225.000000"
 preserveAspectRatio="xMidYMid meet">

<g transform="translate(0.000000,225.000000) scale(0.100000,-0.100000)"
fill="#000000" stroke="none">
<path d="M0 1125 l0 -1125 1125 0 1125 0 0 1125 0 1125 -1125 0 -1125 0 0
-1125z m1261 459 c77 -23 137 -56 189 -103 l45 -40 -81 -1 c-64 0 -92 5 -130
23 -70 32 -227 31 -297 -1 -38 -17 -67 -22 -129 -22 -80 0 -81 0 -63 20 35 38
127 94 193 117 81 27 193 30 273 7z m-161 -259 l0 -55 -150 0 -150 0 -10 -26
c-21 -55 -23 -54 150 -54 l160 0 0 -65 0 -65 -160 0 c-173 0 -171 1 -150 -54
l10 -26 150 0 150 0 0 -55 0 -55 -185 0 -185 0 -20 40 c-30 58 -50 146 -50
215 0 69 20 157 50 215 l20 40 185 0 185 0 0 -55z m465 5 c14 -27 25 -52 25
-55 0 -3 -65 -5 -145 -5 l-145 0 0 -40 0 -40 99 0 99 0 6 -32 c3 -17 3 -47 0
-65 l-6 -33 -99 0 -98 0 -3 -92 -3 -93 -62 -3 -63 -3 0 256 0 255 185 0 185 0
25 -50z m-578 -542 c70 -32 227 -33 297 0 38 17 66 22 130 22 l81 -1 -45 -40
c-119 -108 -298 -147 -453 -99 -64 20 -166 80 -202 119 l-18 21 81 0 c62 0 91
-5 129 -22z"/>
<path d="M1065 1559 c-89 -13 -234 -89 -168 -89 9 0 46 12 82 27 55 23 81 27
156 27 75 0 101 -4 156 -27 108 -44 146 -31 51 17 -85 43 -179 58 -277 45z"/>
<path d="M745 1330 c-3 -5 -15 -35 -25 -66 -28 -80 -26 -208 3 -289 l22 -60
163 -3 c157 -2 162 -2 162 18 0 19 -6 20 -149 20 l-149 0 -16 43 c-9 23 -17
56 -18 72 l-3 30 168 3 167 2 0 25 0 25 -167 2 -168 3 3 30 c1 17 9 49 18 73
l16 42 149 0 c142 0 149 1 149 20 0 19 -7 20 -159 20 -94 0 -162 -4 -166 -10z"/>
<path d="M1200 1125 l0 -215 30 0 29 0 3 93 3 92 103 3 c101 3 102 3 102 27 0
24 -1 24 -102 27 l-103 3 -3 73 -3 72 136 0 c125 0 136 2 133 18 -3 15 -20 17
-166 20 l-162 2 0 -215z"/>
<path d="M880 771 c0 -6 28 -23 63 -40 114 -56 259 -58 378 -5 117 53 90 76
-30 27 -55 -23 -81 -27 -156 -27 -75 0 -101 4 -156 27 -68 28 -99 34 -99 18z"/>
</g>
</svg>
